<svg id="icon_content_copy_24px" data-name="icon/content/copy_24px" xmlns="http://www.w3.org/2000/svg" width="16" height="16" viewBox="0 0 16 16">
  <rect id="Boundary" width="16" height="16" fill="none"/>
  <path id="_Color" data-name=" ↳Color" d="M9.842,14H3.474a1.221,1.221,0,0,1-1.158-1.273V3.818A1.221,1.221,0,0,1,3.474,2.545H9.842A1.221,1.221,0,0,1,11,3.818v8.909A1.221,1.221,0,0,1,9.842,14ZM3.474,3.818v8.909H9.842V3.818ZM1.158,10.182H0V1.273A1.221,1.221,0,0,1,1.158,0H8.106V1.273H1.158v8.909Z" transform="translate(2 1)" fill="var(--primary)"/>
</svg>
