<svg xmlns="http://www.w3.org/2000/svg" width="14.022" height="8.923" viewBox="0 0 14.022 8.923">
  <g id="Group_4176" data-name="Group 4176" transform="translate(-1099 -443.983)">
    <path id="Path_1224" data-name="Path 1224" d="M3678.6,4969.02a1.912,1.912,0,1,0-1.912-1.912A1.908,1.908,0,0,0,3678.6,4969.02Zm-5.1,0a1.912,1.912,0,1,0-1.912-1.912A1.908,1.908,0,0,0,3673.5,4969.02Zm0,1.274c-1.488,0-4.461.746-4.461,2.231v1.594h8.923v-1.594C3677.962,4971.041,3674.989,4970.294,3673.5,4970.294Zm5.1,0c-.185,0-.392.013-.615.036a2.671,2.671,0,0,1,1.252,2.2v1.594h3.824v-1.594C3683.062,4971.041,3680.088,4970.294,3678.6,4970.294Z" transform="translate(-2570.039 -4521.213)" fill="var(--text-secondary)"/>
  </g>
</svg>
