<svg id="icon_content_add_24px" data-name="icon/content/add_24px" xmlns="http://www.w3.org/2000/svg" width="24" height="24" viewBox="0 0 24 24">
  <rect id="Boundary" width="24" height="24" fill="none"/>
  <g id="Group_3663" data-name="Group 3663" transform="translate(-3290.798 -585.563)">
    <path id="Path_1146" data-name="Path 1146" d="M3302.751,594.7l-.491,1.971c.557.139,2.276.706,2.554-.409C3305.1,595.1,3303.309,594.841,3302.751,594.7Z" fill="var(--text-secondary)"/>
    <path id="Path_1147" data-name="Path 1147" d="M3302.011,597.669l-.542,2.174c.67.166,2.734.829,3.04-.4C3304.828,598.166,3302.681,597.836,3302.011,597.669Z" fill="var(--text-secondary)"/>
    <path id="Path_1148" data-name="Path 1148" d="M3304.974,588.832a9,9,0,1,0,6.555,10.909A9,9,0,0,0,3304.974,588.832Zm1.791,7.449h0a1.574,1.574,0,0,1-1.261,1.45,1.734,1.734,0,0,1,.908,2.395c-.533,1.524-1.8,1.652-3.484,1.333l-.409,1.638-.987-.246.4-1.616c-.256-.063-.517-.131-.787-.2l-.405,1.624-.986-.247.409-1.641c-.231-.059-.465-.121-.7-.181l-1.285-.321.49-1.13s.727.193.718.179a.359.359,0,0,0,.452-.234l.646-2.59.1.026a.781.781,0,0,0-.1-.033l.46-1.848a.524.524,0,0,0-.46-.574c.016-.011-.717-.179-.717-.179l.263-1.054,1.362.34v0c.2.051.415.1.63.148l.405-1.622.987.246-.4,1.59c.265.061.532.122.792.186l.393-1.579.988.246-.405,1.622C3306.032,594.44,3306.944,595.084,3306.765,596.281Z" fill="var(--text-secondary)"/>
  </g>
</svg>
