<svg xmlns="http://www.w3.org/2000/svg" width="18" height="18" viewBox="0 0 18 18">
  <g id="Group_3804" data-name="Group 3804" transform="translate(-4080.92 -2000.138)">
    <path id="Path_1191" data-name="Path 1191" d="M4080.92,2000.138h18v18h-18Z" fill="none"/>
    <path id="Path_1204" data-name="Path 1204" d="M4851.484,5409.073a3.5,3.5,0,0,0-3.493,3.493h1.746a1.747,1.747,0,1,1,3.493,0,1.785,1.785,0,0,1-.509,1.237l-1.087,1.1a3.483,3.483,0,0,0-1.018,2.465v.438h1.747a2.926,2.926,0,0,1,1.028-2.465l.778-.8a2.78,2.78,0,0,0,.819-1.966A3.514,3.514,0,0,0,4851.484,5409.073Zm-.948,11.926h1.9v-1.9h-1.9Z" transform="translate(-761.311 -3406.212)" fill="var(--text-secondary)"/>
  </g>
</svg>
