<svg xmlns="http://www.w3.org/2000/svg" width="34.02" height="34.02" viewBox="0 0 34.02 34.02">
  <g id="Group_4268" data-name="Group 4268" transform="translate(-4509.374 -828.4)">
    <path id="Path_1230" data-name="Path 1230" d="M4509.374,828.4h34.02v34.02h-34.02Z" fill="none"/>
    <path id="Path_1231" data-name="Path 1231" d="M4538.054,833.235h-1.417V830.4H4533.8v2.835h-11.34V830.4h-2.835v2.835h-1.417a2.822,2.822,0,0,0-2.821,2.835l-.014,19.845a2.834,2.834,0,0,0,2.835,2.835h19.845a2.834,2.834,0,0,0,2.835-2.835V836.07A2.834,2.834,0,0,0,4538.054,833.235Zm0,22.68h-19.845V840.323h19.845Zm-17.01-12.758h7.087v7.088h-7.087Z" transform="translate(-1.747 -0.582)" fill="#bdbdbd"/>
  </g>
</svg>
