<svg xmlns="http://www.w3.org/2000/svg" width="15.022" height="15.023" viewBox="0 0 15.022 15.023">
  <g id="Group_4079" data-name="Group 4079" transform="translate(-3229.256 -624.778)">
    <path id="Path_1151" data-name="Path 1151" d="M3244.053,634.108a7.509,7.509,0,1,1-5.47-9.105A7.51,7.51,0,0,1,3244.053,634.108Z"/>
    <path id="Path_1152" data-name="Path 1152" d="M3238.54,630.118c.148-1-.612-1.536-1.653-1.895l.339-1.354-.824-.205-.33,1.32c-.216-.055-.439-.105-.66-.155l.332-1.328-.824-.206-.339,1.354c-.178-.042-.354-.081-.525-.124v0l-1.137-.283-.219.879s.611.14.6.148a.439.439,0,0,1,.384.48l-.384,1.543a.514.514,0,0,1,.084.028l-.086-.022-.539,2.161a.3.3,0,0,1-.379.2c.009.012-.6-.148-.6-.148l-.409.943,1.073.268c.2.05.4.1.587.15l-.34,1.37.824.206.336-1.354c.225.06.444.117.657.169l-.337,1.349.826.205.34-1.366c1.406.266,2.461.159,2.907-1.112a1.446,1.446,0,0,0-.759-2,1.316,1.316,0,0,0,1.054-1.211Zm-1.883,2.641c-.255,1.023-1.978.47-2.537.332l.453-1.816C3235.131,631.415,3236.923,631.691,3236.656,632.759Zm.254-2.655c-.231.931-1.666.458-2.131.342l.411-1.646C3235.655,628.915,3237.153,629.131,3236.91,630.1Z" transform="translate(1.539 1.102)" fill="#fff"/>
  </g>
</svg>
