<svg xmlns="http://www.w3.org/2000/svg" width="24" height="24" viewBox="0 0 24 24">
  <g id="Group_4260" data-name="Group 4260" transform="translate(-2645.129 -806.685)">
    <rect id="Rectangle_2207" data-name="Rectangle 2207" width="24" height="24" transform="translate(2645.129 806.685)" fill="none"/>
    <path id="Path_1155" data-name="Path 1155" d="M2664.129,809.685h-14a2.006,2.006,0,0,0-2,2v14a2.006,2.006,0,0,0,2,2h14a2.006,2.006,0,0,0,2-2v-14A2.006,2.006,0,0,0,2664.129,809.685Zm-6.99,15a1.255,1.255,0,0,1-1.26-1.26,1.24,1.24,0,0,1,1.26-1.25,1.226,1.226,0,0,1,1.25,1.25A1.252,1.252,0,0,1,2657.139,824.685Zm3.01-7.4c-.76,1.11-1.48,1.46-1.87,2.17-.16.29-.22.48-.22,1.41h-1.82a3.809,3.809,0,0,1,.31-1.98c.49-.87,1.42-1.39,1.96-2.16a1.485,1.485,0,0,0-1.37-2.33,1.9,1.9,0,0,0-1.8,1.48l-1.65-.7a3.562,3.562,0,0,1,3.43-2.49,3.374,3.374,0,0,1,3.01,1.52A3.017,3.017,0,0,1,2660.149,817.285Z" fill="#666"/>
  </g>
</svg>
