<svg xmlns="http://www.w3.org/2000/svg" width="34.037" height="34.038" viewBox="0 0 34.037 34.038">
  <g id="Group_4270" data-name="Group 4270" transform="translate(-4674.362 -2479.778)">
    <path id="Path_1232" data-name="Path 1232" d="M4674.362,2479.778H4708.4v34.038h-34.037Z" transform="translate(0)" fill="none"/>
    <g id="Group_4269" data-name="Group 4269" transform="translate(4677.237 2482.643)">
      <path id="Path_1233" data-name="Path 1233" d="M4700.157,2506.963a8.549,8.549,0,0,0-1.008-14.035l-.007.011a8.551,8.551,0,0,0-8.514,0l0-.006a8.545,8.545,0,0,0,0,14.728l.007-.011a8.551,8.551,0,0,0,8.514,0l0,.006C4699.491,2507.435,4699.837,2507.216,4700.157,2506.963Zm-5.27-1a5.644,5.644,0,0,1-2.832-.761l0-.005a5.667,5.667,0,0,1,0-9.792l-.006-.01a5.7,5.7,0,0,1,5.667,0l0,0a5.666,5.666,0,0,1,0,9.792l.007.01A5.643,5.643,0,0,1,4694.887,2505.962Z" transform="translate(-4680.743 -2486.142)" fill="#bdbdbd"/>
      <path id="Path_1234" data-name="Path 1234" d="M4700.034,2502.623a2.836,2.836,0,0,0-5.671,0A2.836,2.836,0,0,0,4700.034,2502.623Z" transform="translate(-4683.055 -2488.468)" fill="#bdbdbd"/>
      <path id="Path_1235" data-name="Path 1235" d="M4703.622,2506.832a14.231,14.231,0,0,0-3.963-21.127l0,.007a14.243,14.243,0,0,0-14.187,0l-.006-.01a14.208,14.208,0,0,0,0,24.542l0-.007a14.245,14.245,0,0,0,14.187,0l.006.011A14.473,14.473,0,0,0,4703.622,2506.832Zm-17.256.633a11.446,11.446,0,0,1-4.26-5.082h0a11.347,11.347,0,0,1,20.91-8.821v0C4707.275,2503.865,4695.726,2513.509,4686.365,2507.466Z" transform="translate(-4678.416 -2483.818)" fill="#bdbdbd"/>
    </g>
  </g>
</svg>
