<svg xmlns="http://www.w3.org/2000/svg" width="16.022" height="16.022" viewBox="0 0 16.022 16.022">
  <g id="Group_4179" data-name="Group 4179" transform="translate(-4049.92 -3886.723)">
    <path id="Path_1227" data-name="Path 1227" d="M4049.92,3886.723h16.022v16.022H4049.92Z" transform="translate(0)" fill="none"/>
    <path id="Path_1228" data-name="Path 1228" d="M4063.43,3894.565a4,4,0,0,0-2.834-1.172v4.006l-2.833,2.834a4.008,4.008,0,0,0,5.668-5.668Zm-2.834-3.842a6.676,6.676,0,1,0,6.676,6.676A6.674,6.674,0,0,0,4060.6,3890.723Zm0,12.017a5.341,5.341,0,1,1,5.341-5.341A5.339,5.339,0,0,1,4060.6,3902.74Z" transform="translate(-2.665 -2.665)" fill="#757575"/>
  </g>
</svg>
