<svg xmlns="http://www.w3.org/2000/svg" width="26.615" height="26.615" viewBox="0 0 26.615 26.615">
  <g id="Group_4263" data-name="Group 4263" transform="translate(-697 1564)">
    <g id="Group_3724" data-name="Group 3724" transform="translate(697 -1564)">
      <g id="Group_3710" data-name="Group 3710" transform="translate(0 0)">
        <path id="Path_1168" data-name="Path 1168" d="M2478,582.5h-20.7a2.956,2.956,0,0,0-2.957,2.957v20.7a2.956,2.956,0,0,0,2.957,2.957H2478a2.966,2.966,0,0,0,2.958-2.957v-20.7A2.966,2.966,0,0,0,2478,582.5Zm-14.416,18.193h-2.219v-8.872h2.219Zm10.35-1.479a1.483,1.483,0,0,1-1.479,1.479h-5.915v-8.872h5.915a1.483,1.483,0,0,1,1.479,1.479Z" transform="translate(-2454.342 -582.497)" fill="#bdbdbd"/>
        <rect id="Rectangle_2230" data-name="Rectangle 2230" width="2.957" height="4.436" transform="translate(14.416 11.539)" fill="#bdbdbd"/>
      </g>
    </g>
  </g>
</svg>
